<?xml version="1.0" encoding="utf-8"?>
<!-- Generator: Adobe Illustrator 22.1.0, SVG Export Plug-In . SVG Version: 6.00 Build 0)  -->
<svg version="1.1" id="Layer_1" xmlns="http://www.w3.org/2000/svg" xmlns:xlink="http://www.w3.org/1999/xlink" x="0px" y="0px"
	 viewBox="0 0 283.5 167" style="enable-background:new 0 0 283.5 167;" xml:space="preserve">
<style type="text/css">
	.st0{fill:#BE35C1;}
</style>
<path class="st0" d="M280.8,99.9V29.7c0-17-9.6-28.3-28.9-28.3c-17.4,0-25.6,9.3-30.7,24.1l-31.6,83.1c-1.2,3.3-3.9,5.4-7.3,5.4
	c-3.9,0-6.6-2.9-6.6-7.3V29.7c0-17-9.6-28.3-28.9-28.3c-17.4,0-25.6,9.3-30.7,24.1l-3.8,10.3c-0.1,0.2-0.1,0.4-0.2,0.5
	c-0.8,2-13.3,36.4-18.1,47.9c-4.9,11.8-6.7,27-35.3,26.9H29.4c-2.6,0-4.7-2.1-4.7-4.7V30.2c0-2.1,1.7-3.8,3.8-3.8h30.1
	c10.6,0,18.6,2.2,24.4,7c6.1,5.1,15.4,2.6,18.1-4.8l0.1-0.2c1.7-4.5,0.3-9.7-3.4-12.8C88.2,7.6,75,3.6,58.7,3.6H12.8
	C5.5,3.6,2,7.1,2,14.2v108.9c0,7.1,3.5,10.6,10.8,10.6h45.9c28.3,0,46.9-11.7,54.6-35.5l0.1,0l25.8-69.4c1.3-3.3,3.7-5.6,7.1-5.6
	c3.9,0,6.7,2.9,6.7,7.5v76.7c0,17.2,9.6,28.5,28.7,28.5c17.4,0,25.8-9.3,30.8-24.1l31.6-83.1c1.2-3.3,3.9-5.6,7.1-5.6
	c3.9,0,6.6,2.9,6.6,7.5v69.1c0,6.3,5.1,11.5,11.5,11.5S280.8,106.3,280.8,99.9"/>
<path class="st0" d="M6.1,150.4H2.1v15.2h4.2c4.5,0,7.3-2.6,7.3-7.7C13.5,152.9,10.8,150.4,6.1,150.4 M6,163.5H4.8v-10.8H6
	c3.1,0,4.8,1.6,4.8,5.4C10.8,161.7,9,163.5,6,163.5"/>
<rect x="18.4" y="150.4" class="st0" width="2.7" height="15.2"/>
<path class="st0" d="M32.6,159.6h2.9v3.3c-0.5,0.4-1.3,0.7-2.2,0.7c-3.1,0-4.7-2.1-4.7-5.6c0-3.4,1.8-5.5,4.5-5.5
	c1.4,0,2.3,0.6,3.1,1.3l1.4-1.7c-1-1-2.4-1.9-4.6-1.9c-4,0-7.2,3-7.2,7.9c0,5,3.1,7.8,7.2,7.8c2.1,0,3.8-0.8,4.9-1.8v-6.7h-5.3
	V159.6z"/>
<rect x="43" y="150.4" class="st0" width="2.7" height="15.2"/>
<polygon class="st0" points="50,152.7 54.4,152.7 54.4,165.6 57.1,165.6 57.1,152.7 61.5,152.7 61.5,150.4 50,150.4 "/>
<path class="st0" d="M67.8,150.4l-5,15.2h2.8l1.2-4.1h5.1l1.2,4.1h2.9l-5-15.2H67.8z M67.4,159.4l0.5-1.9c0.5-1.6,0.9-3.3,1.4-5h0.1
	c0.4,1.7,0.9,3.4,1.4,5l0.5,1.9H67.4z"/>
<polygon class="st0" points="82.1,150.4 79.4,150.4 79.4,165.6 88.4,165.6 88.4,163.4 82.1,163.4 "/>
<path class="st0" d="M107,157.9c-0.3,1-0.6,2-1,3H106c-0.3-1-0.6-2-1-3l-2.7-7.4h-3.1v15.2h2.4v-7c0-1.4-0.2-3.4-0.3-4.8h0.1
	l1.2,3.5l2.5,6.8h1.6l2.5-6.8l1.2-3.5h0.1c-0.1,1.4-0.3,3.4-0.3,4.8v7h2.5v-15.2h-3.1L107,157.9z"/>
<path class="st0" d="M121.3,150.4l-5,15.2h2.8l1.2-4.1h5.1l1.2,4.1h2.9l-5-15.2H121.3z M120.9,159.4l0.5-1.9c0.5-1.6,0.9-3.3,1.3-5
	h0.1c0.4,1.7,0.9,3.4,1.4,5l0.5,1.9H120.9z"/>
<path class="st0" d="M143.6,154.9c0-3.4-2.4-4.5-5.6-4.5h-5.1v15.2h2.7v-5.9h2.3l3.3,5.9h3l-3.6-6.3
	C142.4,158.7,143.6,157.2,143.6,154.9 M137.8,157.5h-2.1v-5h2.1c2.1,0,3.2,0.6,3.2,2.4C141,156.7,139.8,157.5,137.8,157.5"/>
<polygon class="st0" points="159.6,150.4 156.6,150.4 151.2,157.3 151.1,157.3 151.1,150.4 148.4,150.4 148.4,165.6 151.1,165.6 
	151.1,161.2 153.3,158.5 157.4,165.6 160.4,165.6 154.9,156.4 "/>
<path class="st0" d="M172.9,157c0,1.7,0.2,3.6,0.3,5.2h-0.1l-1.6-3.2l-4.7-8.6h-2.8v15.2h2.6V159c0-1.7-0.2-3.5-0.3-5.1h0.1l1.6,3.2
	l4.7,8.6h2.8v-15.2h-2.6V157z"/>
<path class="st0" d="M184,150.4l-5,15.2h2.8l1.2-4.1h5.1l1.2,4.1h2.9l-5-15.2H184z M183.6,159.4l0.5-1.9c0.5-1.6,0.9-3.3,1.4-5h0.1
	c0.4,1.7,0.9,3.4,1.4,5l0.5,1.9H183.6z"/>
<path class="st0" d="M199.7,150.4h-4.1v15.2h4.2c4.5,0,7.3-2.6,7.3-7.7C207.1,152.9,204.4,150.4,199.7,150.4 M199.5,163.5h-1.2
	v-10.8h1.2c3.1,0,4.8,1.6,4.8,5.4C204.4,161.7,202.6,163.5,199.5,163.5"/>
<path class="st0" d="M218.8,157.3l-2.1-0.9c-1.3-0.5-2.4-1-2.4-2.2c0-1.1,0.9-1.8,2.4-1.8c1.3,0,2.3,0.5,3.3,1.3l1.4-1.7
	c-1.2-1.2-2.9-1.9-4.7-1.9c-3,0-5.1,1.9-5.1,4.3c0,2.2,1.6,3.4,3.1,4l2.1,0.9c1.4,0.6,2.4,1,2.4,2.2c0,1.2-0.9,2-2.7,2
	c-1.4,0-2.9-0.7-4-1.7l-1.6,1.9c1.4,1.4,3.4,2.2,5.5,2.2c3.4,0,5.5-2.1,5.5-4.5C221.8,159.2,220.6,158,218.8,157.3"/>
<path class="st0" d="M231.2,150.4h-4.8v15.2h2.7V160h2.2c3.3,0,5.8-1.5,5.8-4.9C237,151.6,234.5,150.4,231.2,150.4 M231,157.9h-2
	v-5.3h1.9c2.3,0,3.4,0.6,3.4,2.5C234.4,157,233.3,157.9,231,157.9"/>
<polygon class="st0" points="244.3,150.4 241.6,150.4 241.6,165.6 250.7,165.6 250.7,163.4 244.3,163.4 "/>
<path class="st0" d="M258,150.4l-5,15.2h2.8l1.2-4.1h5.1l1.2,4.1h2.9l-5-15.2H258z M257.6,159.4l0.5-1.9c0.5-1.6,0.9-3.3,1.4-5h0.1
	c0.4,1.7,0.9,3.4,1.4,5l0.5,1.9H257.6z"/>
<path class="st0" d="M278.4,150.4v6.6c0,1.7,0.2,3.6,0.3,5.2h-0.1l-1.6-3.2l-4.7-8.6h-2.8v15.2h2.6V159c0-1.7-0.2-3.5-0.3-5.1h0.1
	l1.6,3.2l4.7,8.6h2.8v-15.2H278.4z"/>
</svg>
